<svg xmlns="http://www.w3.org/2000/svg" width="85.065" height="85.118" viewBox="0 0 85.065 85.118">
    <g data-name="Grupo 1498">
        <path data-name="Trazado 1197" d="M389.756 2426.27a14.186 14.186 0 1 0 14.186 14.186 14.187 14.187 0 0 0-14.186-14.186zm0 25.537a11.35 11.35 0 1 1 11.351-11.35 11.352 11.352 0 0 1-11.351 11.35z" transform="translate(-357.137 -2375.211)" style="fill:#f20043"/>
        <path data-name="Trazado 1198" d="M393.252 2438.534c1.73 0 2.836.836 2.836 1.418h2.836c0-2.014-1.787-3.651-4.254-4.112v-1.56h-2.836v1.56c-2.467.461-4.254 2.1-4.254 4.112 0 2.389 2.5 4.254 5.672 4.254 1.73 0 2.836.836 2.836 1.418s-1.106 1.418-2.836 1.418-2.836-.837-2.836-1.418h-2.836c0 2.013 1.787 3.651 4.254 4.112v1.56h2.836v-1.56c2.467-.461 4.254-2.1 4.254-4.112 0-2.389-2.5-4.254-5.672-4.254-1.73 0-2.836-.836-2.836-1.418s1.106-1.418 2.836-1.418z" transform="translate(-360.632 -2377.542)" style="fill:#f20043"/>
        <path data-name="Trazado 1199" d="M421.912 2436.518h-59.581v-34.044h22.7a4.253 4.253 0 0 0 4.254-4.254v-35.462h15.6v17.022h17.022v19.858h2.836v-21.865l-17.843-17.851h-17.614v-1.422a4.253 4.253 0 0 0-4.254-4.254h-31.208a4.253 4.253 0 0 0-4.254 4.254v39.723a4.253 4.253 0 0 0 4.254 4.254h5.676v36.887h65.253v-19.854h-2.836v17.008zm-14.186-71.761 12.18 12.18h-12.18zM352.4 2398.22v-39.72a1.422 1.422 0 0 1 1.418-1.418h31.208a1.418 1.418 0 0 1 1.418 1.418v39.723a1.422 1.422 0 0 1-1.418 1.418h-31.209a1.417 1.417 0 0 1-1.417-1.421z" transform="translate(-349.57 -2354.25)" style="fill:#f20043"/>
        <path data-name="Trazado 1200" d="M413.59 2404.26h2.836v2.836h-2.836z" transform="translate(-368.202 -2368.805)" style="fill:#f20043"/>
        <path data-name="Trazado 1201" d="M421.59 2404.26h17.022v2.836H421.59z" transform="translate(-370.531 -2368.805)" style="fill:#f20043"/>
        <path data-name="Trazado 1202" d="M413.59 2396.26h2.836v2.836h-2.836z" transform="translate(-368.202 -2366.476)" style="fill:#f20043"/>
        <path data-name="Trazado 1203" d="M421.59 2396.26h17.022v2.836H421.59z" transform="translate(-370.531 -2366.476)" style="fill:#f20043"/>
        <path data-name="Trazado 1204" d="M413.59 2412.26h2.836v2.836h-2.836z" transform="translate(-368.202 -2371.133)" style="fill:#f20043"/>
        <path data-name="Trazado 1205" d="M421.59 2412.26h17.022v2.836H421.59z" transform="translate(-370.531 -2371.133)" style="fill:#f20043"/>
        <path data-name="Trazado 1206" d="M413.59 2420.27h2.836v2.836h-2.836z" transform="translate(-368.202 -2373.464)" style="fill:#f20043"/>
        <path data-name="Trazado 1207" d="M421.59 2420.27h17.022v2.836H421.59z" transform="translate(-370.531 -2373.464)" style="fill:#f20043"/>
        <path data-name="Trazado 1208" d="M386.768 2360.24H355.56v9.932h31.208zm-2.836 7.09H358.4v-4.254h25.537z" transform="translate(-351.313 -2355.993)" style="fill:#f20043"/>
        <path data-name="Trazado 1209" d="M363.232 2376.25H360.4a2.835 2.835 0 0 0-2.836 2.836v2.836a2.835 2.835 0 0 0 2.836 2.836h2.836a2.835 2.835 0 0 0 2.836-2.836v-2.836a2.831 2.831 0 0 0-2.84-2.836zm-2.836 5.672v-2.836h2.836v2.836z" transform="translate(-351.895 -2360.653)" style="fill:#f20043"/>
        <path data-name="Trazado 1210" d="M377.242 2376.25h-2.836a2.835 2.835 0 0 0-2.836 2.836v2.836a2.835 2.835 0 0 0 2.836 2.836h2.836a2.835 2.835 0 0 0 2.836-2.836v-2.836a2.835 2.835 0 0 0-2.836-2.836zm-2.836 5.672v-2.836h2.836v2.836z" transform="translate(-355.973 -2360.653)" style="fill:#f20043"/>
        <path data-name="Trazado 1211" d="M391.252 2376.25h-2.836a2.835 2.835 0 0 0-2.836 2.836v2.836a2.835 2.835 0 0 0 2.836 2.836h2.836a2.835 2.835 0 0 0 2.836-2.836v-2.836a2.835 2.835 0 0 0-2.836-2.836zm-2.836 5.672v-2.836h2.836v2.836z" transform="translate(-360.05 -2360.653)" style="fill:#f20043"/>
        <path data-name="Trazado 1212" d="M363.232 2390.25H360.4a2.835 2.835 0 0 0-2.836 2.836v2.836a2.835 2.835 0 0 0 2.836 2.836h2.836a2.835 2.835 0 0 0 2.836-2.836v-2.836a2.835 2.835 0 0 0-2.84-2.836zm-2.836 5.679v-2.836h2.836v2.836z" transform="translate(-351.895 -2364.727)" style="fill:#f20043"/>
        <path data-name="Trazado 1213" d="M377.242 2390.25h-2.836a2.835 2.835 0 0 0-2.836 2.836v2.836a2.835 2.835 0 0 0 2.836 2.836h2.836a2.835 2.835 0 0 0 2.836-2.836v-2.836a2.84 2.84 0 0 0-2.836-2.836zm-2.836 5.679v-2.836h2.836v2.836z" transform="translate(-355.973 -2364.727)" style="fill:#f20043"/>
        <path data-name="Trazado 1214" d="M391.252 2390.25h-2.836a2.835 2.835 0 0 0-2.836 2.836v2.836a2.835 2.835 0 0 0 2.836 2.836h2.836a2.835 2.835 0 0 0 2.836-2.836v-2.836a2.84 2.84 0 0 0-2.836-2.836zm-2.836 5.679v-2.836h2.836v2.836z" transform="translate(-360.05 -2364.727)" style="fill:#f20043"/>
        <path data-name="Trazado 1215" d="M363.232 2404.26H360.4a2.835 2.835 0 0 0-2.836 2.836v2.836a2.835 2.835 0 0 0 2.836 2.836h2.836a2.835 2.835 0 0 0 2.836-2.836v-2.832a2.831 2.831 0 0 0-2.84-2.84zm-2.836 5.672v-2.832h2.836v2.836z" transform="translate(-351.895 -2368.805)" style="fill:#f20043"/>
        <path data-name="Trazado 1216" d="M377.242 2404.26h-2.836a2.835 2.835 0 0 0-2.836 2.836v2.836a2.835 2.835 0 0 0 2.836 2.836h2.836a2.835 2.835 0 0 0 2.836-2.836v-2.832a2.835 2.835 0 0 0-2.836-2.84zm-2.836 5.672v-2.832h2.836v2.836z" transform="translate(-355.973 -2368.805)" style="fill:#f20043"/>
        <path data-name="Trazado 1217" d="M391.252 2404.26h-2.836a2.835 2.835 0 0 0-2.836 2.836v2.836a2.835 2.835 0 0 0 2.836 2.836h2.836a2.835 2.835 0 0 0 2.836-2.836v-2.832a2.835 2.835 0 0 0-2.836-2.84zm-2.836 5.672v-2.832h2.836v2.836z" transform="translate(-360.05 -2368.805)" style="fill:#f20043"/>
        <path data-name="Trazado 1218" d="M453.771 2417.584a4.355 4.355 0 0 0-6.019 0l-24.318 24.316a1.377 1.377 0 0 0-.284.411l-3.424 7.437a1.415 1.415 0 0 0 1.879 1.879l7.437-3.424a1.473 1.473 0 0 0 .411-.284l24.317-24.317a4.262 4.262 0 0 0 .001-6.018zm-26.146 28.153-3.715 1.716 1.716-3.715 18.134-18.138 2.006 2.006zm20.142-20.142-2.006-2.006.993-.993 2.006 2.006zm4.006-4.006-1 1-2.006-2.006 1.007-1a1.448 1.448 0 0 1 2.006 0 1.427 1.427 0 0 1-.008 2.007z" transform="translate(-369.95 -2372.331)" style="fill:#f20043"/>
    </g>
</svg>
