<svg xmlns="http://www.w3.org/2000/svg" width="80.621" height="80.87" viewBox="0 0 80.621 80.87">
    <g data-name="Grupo 1499">
        <g data-name="Grupo 1175">
            <path data-name="Trazado 1219" d="M429.755 2996.55h-77.443a1.591 1.591 0 0 0-1.592 1.593v24.907a1.586 1.586 0 0 0 1.216 1.545v51.38a1.442 1.442 0 0 0 1.445 1.444h75.3a1.442 1.442 0 0 0 1.445-1.444V3024.6a1.592 1.592 0 0 0 1.216-1.545v-24.907a1.581 1.581 0 0 0-1.587-1.598zm-76.664 2.372h75.891v23.355h-1.814a24.989 24.989 0 0 0-.06-3.3c-.087-.6.027-.114-1.928-7.075a2.568 2.568 0 0 0-2.459-1.861h-63.347a2.562 2.562 0 0 0-2.459 1.861c-1.955 6.954-1.854 6.51-1.935 7.082a24.235 24.235 0 0 0-.06 3.292h-1.814v-23.355zm21.205 42.773H376v4.213h-1.7zm4.072 0h1.707v4.213h-1.707zm4.078 0h1.707v4.213h-1.707zm23.261-4.448h-5.678v-1.579h5.678zm-3.642 2.365h1.606v1.606h-1.606zm5.543 3.978a2.111 2.111 0 0 0 2.11-2.157h5.482v4.475h-17.037v-2.318zm-4.623 22.2v-5.09h3.38v5.086zm-5.751 0v-5.09h3.38v5.086zm-5.751 0v-5.09h3.38v5.086zm-9.763-7.458v-5.086h3.38v5.086zm-5.751 0v-5.086h3.38v5.086zm-5.751 0v-5.086h3.38v5.086zm17.254-5.086h3.38v5.086h-3.38zm24.645 0v5.086h-18.893v-5.086zm-3.38 7.451h3.38v5.086h-3.38zm3.38-12.417v2.594h-41.9v-2.594zm-40.193-2.372h-1.707v-4.213h1.707zm-4.072 24.235h-3.472a.089.089 0 0 1-.087-.087v-21.682a.089.089 0 0 1 .087-.087h3.474zm2.365-1.989h4.569a1.183 1.183 0 0 0 0-2.365h-4.569v-5.089h18.894v5.086h-8.8a1.183 1.183 0 0 0 0 2.365h31.8v1.982h-41.9zm45.38 4.354h2.365a2.46 2.46 0 0 0 2.459-2.459v-11.207a1.183 1.183 0 0 0-2.365 0v11.207a.089.089 0 0 1-.087.087H414.5v-21.864h3.474a.089.089 0 0 1 .087.087v4.952a1.183 1.183 0 1 0 2.365 0v-4.952a2.46 2.46 0 0 0-2.459-2.459h-.4v-4.985a1.858 1.858 0 0 0-1.854-1.854h-6.5a1.858 1.858 0 0 0-1.854 1.854v.3h-1.31v-1.606h.356a1.68 1.68 0 0 0 1.68-1.68v-2.956a1.68 1.68 0 0 0-1.68-1.68h-7.055a1.68 1.68 0 0 0-1.68 1.68v2.956a1.68 1.68 0 0 0 1.68 1.68h.356v1.606h-2.049a1.858 1.858 0 0 0-1.854 1.854v2.829h-9.265v-4.885a1.7 1.7 0 0 0-1.693-1.693h-3.05a1.654 1.654 0 0 1-1.021 0h-3.05a1.654 1.654 0 0 1-1.021 0h-3.05a1.654 1.654 0 0 1-1.021 0h-3.05a1.7 1.7 0 0 0-1.693 1.693v4.885h-3.474a2.46 2.46 0 0 0-2.459 2.459v21.682a2.46 2.46 0 0 0 2.459 2.459h2.365v2.547h-7.626v-45.676a6.121 6.121 0 0 0 6.934-2.264 6.174 6.174 0 0 0 10.011.041 6.173 6.173 0 0 0 9.984 0 6.173 6.173 0 0 0 9.984 0 6.173 6.173 0 0 0 9.984 0 6.17 6.17 0 0 0 10.011-.041 6.122 6.122 0 0 0 6.934 2.264v45.676h-7.357l-.034-2.54zm9.192-52.18v3.192a3.8 3.8 0 0 1-3.944 3.8 3.9 3.9 0 0 1-3.669-3.924v-3.071zm-57.528 0h7.613v3.192a3.81 3.81 0 0 1-7.619 0v-3.192zm9.984 0h7.613v3.192a3.81 3.81 0 0 1-7.619 0v-3.192zm9.978 0h7.613v3.192a3.81 3.81 0 0 1-7.619 0l.007-3.192zm9.984 0h7.613v3.192a3.81 3.81 0 0 1-7.619 0zm9.984 0h7.613v3.192a3.81 3.81 0 0 1-7.619 0v-3.192zm9.984-2.365v-5.55h5.53a.194.194 0 0 1 .181.134l1.525 5.416zm-2.372 0h-7.613v-5.55h7.613zm-9.978 0h-7.613v-5.55h7.613zm-9.984 0h-7.613v-5.55h7.613zm-9.984 0h-7.613v-5.55h7.613zm-9.984 0h-7.613v-5.55h7.613zm-9.984 0h-7.236l1.525-5.416a.181.181 0 0 1 .181-.134h5.53v5.55zm0 2.365v3.071a3.9 3.9 0 0 1-3.669 3.924 3.766 3.766 0 0 1-2.526-.84c-.013-.013-.027-.02-.04-.034a3.789 3.789 0 0 1-1.384-2.936v-3.191h7.619zm-10.582 4.314h.7a6.055 6.055 0 0 0 1.74 3.272v47.134h-2.439zm14.8 50.412v-2.546h44.117v2.546zm56.211 0v-47.134a6.145 6.145 0 0 0 1.74-3.272h.7v50.413h-2.439z" transform="translate(-350.72 -2996.55)" style="fill:#f20043"/>
            <path data-name="Trazado 1220" d="M365.451 3010.4h2.466a1.182 1.182 0 1 0 0-2.365H366.4v-3.225h58.267v3.225h-51.214a1.182 1.182 0 1 0 0 2.365h52.159a1.425 1.425 0 0 0 1.424-1.425v-5.106a1.425 1.425 0 0 0-1.424-1.425h-60.148a1.425 1.425 0 0 0-1.424 1.425v5.106a1.409 1.409 0 0 0 1.411 1.425z" transform="translate(-355.09 -2998.482)" style="fill:#f20043"/>
        </g>
    </g>
</svg>
