<svg xmlns="http://www.w3.org/2000/svg" width="85.213" height="94.358" viewBox="0 0 85.213 94.358">
    <g data-name="Grupo 1500">
        <path data-name="Trazado 1191" d="M373.147 3705.844v-19.19c0-1.477.241-1.8 1.669-2.209 2.976-.852 5.959-1.7 8.984-2.564v-7.45c0-1.562.49-2.052 2.031-2.052h17.308c1.435 0 1.96.519 1.96 1.932.007 2.5 0 5 0 7.556 2.919.838 5.8 1.669 8.693 2.486 1.783.5 1.96.724 1.96 2.571v18.92h14.673c1.6 0 2.145.5 2.038 2.116a102.208 102.208 0 0 1-.611 6.236c-.17 1.349-.682 1.74-2.031 1.719-3.43-.064-3.3.135-4.339 3.011-.433 1.186-.987 2.33-1.52 3.48a2.1 2.1 0 0 0 .5 2.9c.426.426.852.845 1.278 1.278a1.521 1.521 0 0 1 .227 2.074 37.943 37.943 0 0 1-10.22 10.227 1.515 1.515 0 0 1-2.074-.185c-.526-.5-1.023-1.044-1.548-1.541a2.038 2.038 0 0 0-2.365-.4c-1.8.767-3.622 1.5-5.426 2.251a1.969 1.969 0 0 0-1.321 1.9c-.014.667.007 1.335-.007 2a1.586 1.586 0 0 1-1.513 1.833 36.184 36.184 0 0 1-11.441.4c-.845-.106-1.7-.22-2.535-.376-1.236-.227-1.605-.7-1.619-1.932-.007-.6 0-1.207 0-1.8a2.051 2.051 0 0 0-1.4-2.045 310.84 310.84 0 0 1-5.348-2.216 2.05 2.05 0 0 0-2.436.44c-.476.461-.937.945-1.413 1.406a1.554 1.554 0 0 1-2.216.22A37.664 37.664 0 0 1 363 3728.755a1.555 1.555 0 0 1 .22-2.216c.462-.483.945-.937 1.406-1.413a2.053 2.053 0 0 0 .447-2.436c-.76-1.776-1.484-3.558-2.216-5.341a2.042 2.042 0 0 0-2.038-1.406c-.632 0-1.271.007-1.9 0-1.122-.014-1.662-.391-1.811-1.52-.284-2.223-.511-4.46-.668-6.7-.092-1.279.533-1.847 1.839-1.847q6.85-.011 13.693 0h1.179zm26.817 36.021c0-.362-.007-.675 0-.98a5.1 5.1 0 0 1 3.324-4.758c1.761-.7 3.508-1.428 5.255-2.166a4.979 4.979 0 0 1 5.568.866c.305.263.589.554.9.845a34.312 34.312 0 0 0 7.748-7.755c-.3-.32-.561-.589-.817-.866a5.062 5.062 0 0 1-.881-5.653c.753-1.7 1.456-3.43 2.138-5.17a5.114 5.114 0 0 1 4.73-3.359c.341-.007.682 0 1.094 0 .142-1.371.27-2.642.4-3.935H418.5a24.171 24.171 0 0 1-22.918 22.464 23.417 23.417 0 0 1-14.95-4.339 23.91 23.91 0 0 1-10.227-18.117h-10.922c.05.689.085 1.321.149 1.953s.17 1.293.263 1.981c.419 0 .732-.007 1.044 0a5.107 5.107 0 0 1 4.737 3.352q1.023 2.6 2.138 5.17a5.058 5.058 0 0 1-.937 5.724c-.249.27-.5.54-.753.81a34.458 34.458 0 0 0 7.763 7.741c.334-.32.6-.6.888-.838a4.954 4.954 0 0 1 5.568-.866c1.747.739 3.494 1.477 5.255 2.166a5.1 5.1 0 0 1 3.324 4.758c.007.334 0 .675 0 .98a31.863 31.863 0 0 0 11.044-.007m-26.412-32.932a20.937 20.937 0 0 0 41.767 0zm28.446-3.14v-30.34h-15.1v30.319h2.99c0-1.9-.007-3.736 0-5.575.007-1.435.518-1.96 1.932-1.967 1.712-.007 3.423 0 5.135 0 1.562 0 2.06.483 2.06 2.024.007 1.833 0 3.657 0 5.533H402zm3.175-20.738v20.709h7.514v-18.572c-2.486-.7-4.971-1.413-7.514-2.138m-28.934 20.731h7.528v-20.738c-2.564.739-5.064 1.456-7.528 2.159zm16.718-.029h2.962v-4.41h-2.962z" transform="translate(-351.843 -3651.065)" style="fill:#f20043"/>
        <path data-name="Trazado 1192" d="M365.19 3700.052h-3.04v-1.6c0-2.947-.014-5.9.014-8.835a1.008 1.008 0 0 0-.646-1.1 58.204 58.204 0 0 1-3.146-1.562.965.965 0 0 0-1.186.078 4.467 4.467 0 0 1-5.689-.284 4.558 4.558 0 0 1 3.9-7.876 4.629 4.629 0 0 1 3.729 4.446 1.281 1.281 0 0 0 .589.888c1.449.781 2.933 1.492 4.4 2.223a1.659 1.659 0 0 1 1.072 1.541v12.081m-10.66-15.184a1.517 1.517 0 1 0-1.513-1.5 1.535 1.535 0 0 0 1.513 1.5" transform="translate(-349.972 -3652.923)" style="fill:#f20043"/>
        <path data-name="Trazado 1193" d="M451.581 3700.048h-3.047v-1.712c0-3.324.021-6.647-.014-9.978a1.946 1.946 0 0 1 1.243-2.01c1.435-.667 2.827-1.427 4.247-2.109a.968.968 0 0 0 .632-1.008 4.512 4.512 0 0 1 3.665-4.368 4.558 4.558 0 0 1 3.92 7.862 4.445 4.445 0 0 1-5.6.348 1.1 1.1 0 0 0-1.349-.106c-1 .547-2.017 1.065-3.054 1.534a1.012 1.012 0 0 0-.66 1.094c.028 3.459.021 6.91.021 10.454m7.642-18.217a1.517 1.517 0 1 0 1.484 1.527 1.524 1.524 0 0 0-1.484-1.527" transform="translate(-378.531 -3652.919)" style="fill:#f20043"/>
        <path data-name="Trazado 1194" d="M383.572 3676.481h-3.04v-1.022c0-2.727.021-5.447-.028-8.174a3.142 3.142 0 0 0-.526-1.314c-.149-.263-.447-.44-.653-.682a2.423 2.423 0 0 0-2.862-1.044c-1.8.526-3.814-.781-4.638-2.542a4.566 4.566 0 0 1 6.541-5.8 4.378 4.378 0 0 1 1.989 4.915 1.307 1.307 0 0 0 .5 1.69 6.545 6.545 0 0 1 2.77 6.555c-.241 2.422-.057 4.88-.057 7.422m-6.094-16.675a1.524 1.524 0 0 0-1.47-1.534 1.513 1.513 0 1 0 1.47 1.534" transform="translate(-356.181 -3646.092)" style="fill:#f20043"/>
        <path data-name="Trazado 1195" d="M434.431 3676.489h-3.047v-1.015c0-3.011.028-6.016-.014-9.02a2.54 2.54 0 0 1 .881-2.088c.682-.618 1.278-1.314 1.967-1.932a1.213 1.213 0 0 0 .412-1.463 4.417 4.417 0 0 1 1.854-4.972 4.557 4.557 0 0 1 6.8 5.341 4.574 4.574 0 0 1-4.4 3.019 1.305 1.305 0 0 1-.561-.057c-1.094-.575-1.7.078-2.493.753a4 4 0 0 0-1.435 3.544c.114 2.585.036 5.185.036 7.89m4.588-18.209a1.517 1.517 0 1 0 1.491 1.513 1.534 1.534 0 0 0-1.491-1.513" transform="translate(-373.561 -3646.1)" style="fill:#f20043"/>
        <path data-name="Trazado 1196" d="M409.626 3662.106h-3.047v-1c0-3.011-.014-6.022.014-9.034a1.087 1.087 0 0 0-.668-1.172 4.43 4.43 0 0 1-2.244-5.064 4.554 4.554 0 0 1 8.828-.064 4.449 4.449 0 0 1-2.173 5.1 1.164 1.164 0 0 0-.717 1.236c.028 3.011.014 6.022.014 9.034v.966zm-.007-15.205a1.514 1.514 0 1 0-1.449 1.555 1.529 1.529 0 0 0 1.449-1.555" transform="translate(-365.495 -3642.37)" style="fill:#f20043"/>
        <path data-name="Rectángulo 346" transform="translate(12.221 50.283)" style="fill:#f20043" d="M0 0h2.933v2.919H0z"/>
    </g>
</svg>
